<svg width="90" height="19" viewBox="0 0 90 19" fill="none" xmlns="http://www.w3.org/2000/svg">
<g clip-path="url(#clip0_6050_10608)">
<path d="M18.7702 1.77719C18.7702 0.80725 18.0774 0.139629 17.1074 0.139629C14.6763 0.139629 12.2451 0.139629 9.814 0.139629C7.38285 0.139629 5.07767 0.190015 2.7095 0.114435C1.24829 0.0766455 0.65625 0.971006 0.65625 2.19288C0.681443 4.57364 0.65625 6.9544 0.65625 9.34776C0.65625 11.7411 0.65625 13.9077 0.65625 16.1877C0.65625 17.3088 1.32387 18.0898 2.29381 18.0898C7.24429 18.0898 12.1948 18.0898 17.1326 18.0898C18.0648 18.0898 18.7576 17.397 18.7576 16.4649C18.7576 11.5774 18.7576 6.67728 18.7576 1.78979L18.7702 1.77719ZM2.86066 6.967C3.31414 6.12303 3.8306 5.31684 4.37226 4.52325C4.76275 3.94381 5.51855 3.81784 6.09799 4.17055C6.70263 4.52325 6.92937 5.27905 6.57667 5.90888C6.11059 6.72766 5.60672 7.50866 5.10286 8.30224C4.86352 8.68014 4.48562 8.85649 4.04474 8.85649C3.04961 8.85649 2.39458 7.84876 2.86066 6.967ZM5.41778 15.5957C4.35966 15.5957 3.75502 14.5376 4.29668 13.5928C5.06507 12.2828 5.88385 10.9853 6.67744 9.68787C8.05047 7.44567 9.4235 5.20347 10.7965 2.96127C11.124 2.43221 11.5145 2.01653 12.1822 2.05432C13.2151 2.1173 13.7441 3.18801 13.1647 4.14536C11.9554 6.17341 10.7084 8.17628 9.47389 10.1791C8.54174 11.7159 7.59699 13.2401 6.66484 14.7769C6.37512 15.2556 6.00982 15.5831 5.41778 15.5957ZM16.4524 8.30224C15.7722 9.47373 15.0416 10.62 14.3362 11.7789C13.5552 13.0386 12.7868 14.3108 12.0058 15.5579C11.4894 16.3893 10.7587 16.616 10.0659 16.1751C9.39831 15.7594 9.27234 14.9911 9.75102 14.1975C11.2122 11.8167 12.6734 9.43594 14.1346 7.04258C14.4244 6.56391 14.8023 6.2364 15.3943 6.24899C16.4398 6.24899 17.0193 7.3323 16.465 8.28965L16.4524 8.30224Z" fill="black"/>
<path d="M61.0829 4.86328H64.9879C65.9074 8.02503 66.827 11.1616 67.7465 14.3108C67.7969 14.3108 67.8473 14.3108 67.8977 14.3108C68.8172 11.1616 69.7368 8.02504 70.6437 4.87588H74.5613C72.9993 9.33508 71.4499 13.7313 69.9257 18.1149H65.7059C64.1691 13.7187 62.6323 9.33508 61.0703 4.86328H61.0829Z" fill="black"/>
<path d="M56.7266 0.351562H60.2788V18.0876H56.7266V0.351562Z" fill="black"/>
<path d="M41.5298 7.11606C41.1519 4.99983 40.2198 3.17332 38.4185 1.86327C37.0832 0.905926 35.5716 0.402061 33.9719 0.351674C31.5533 0.263498 29.1222 0.326481 26.6406 0.326481V18.0877C26.7792 18.1129 26.88 18.1381 26.9807 18.1381C29.4875 18.1003 32.0068 18.1885 34.5135 17.987C37.7257 17.735 39.9427 15.9967 41.089 12.9735C41.807 11.0714 41.8951 9.09373 41.5424 7.11606H41.5298ZM37.6753 11.3485C37.184 13.3892 35.8236 14.5985 33.7199 14.7496C32.6366 14.8252 31.5533 14.7622 30.407 14.7622V3.46304C32.4225 3.55122 34.5513 2.95918 36.2393 4.48337C36.8817 5.06281 37.3604 5.94458 37.6249 6.77595C38.1036 8.26236 38.0406 9.81174 37.6753 11.3485Z" fill="black"/>
<path d="M82.5215 12.3707H87.0941C87.1949 10.5568 87.0185 8.91926 86.1493 7.42026C85.1164 5.65673 83.4789 4.81276 81.5012 4.6364C79.1456 4.43486 77.0672 5.08988 75.6438 7.06755C74.2707 8.96965 74.044 11.1489 74.4849 13.4037C74.7368 14.7011 75.2785 15.9104 76.2862 16.7796C78.7425 18.8958 82.5467 19.0218 85.2046 17.1575C86.0612 16.578 86.7792 15.5451 86.9933 14.3106C85.8344 14.2476 84.7511 14.1846 83.6804 14.1217C82.6727 15.7466 81.0855 15.8474 79.8384 15.4443C78.5914 15.0412 77.9112 13.8949 78.0245 12.3833H82.5089L82.5215 12.3707ZM81.0603 7.34468C82.5215 7.40766 83.693 8.67992 83.5418 10.0781H78.0497C78.0497 8.47838 79.385 7.2691 81.0603 7.34468Z" fill="black"/>
<path d="M55.4114 10.7074C55.2602 8.16285 54.2399 6.19778 51.8087 5.10187C49.0375 3.8548 45.46 4.83734 43.7847 7.35667C42.6384 9.08241 42.5502 11.0097 42.7644 12.9622C42.9029 14.247 43.3816 15.4185 44.276 16.401C45.9261 18.215 48.0675 18.5677 50.3601 18.3661C51.9473 18.2276 53.3455 17.5851 54.391 16.3381C54.8697 15.7586 55.2224 14.9902 55.2602 14.31C54.1265 14.247 53.0432 14.184 51.9977 14.1211C51.0403 15.8342 49.1131 15.935 47.803 15.2925C46.6945 14.7509 46.2158 13.3653 46.4804 12.3701H55.3232C55.361 12.2064 55.3862 12.156 55.3862 12.093C55.3862 11.6269 55.4114 11.1734 55.3862 10.72L55.4114 10.7074ZM51.9095 10.0649H46.43C46.1781 8.96904 47.4377 7.50783 48.9241 7.34407C50.4609 7.18031 52.0481 8.45257 51.9095 10.0649Z" fill="black"/>
</g>
<defs>
<clipPath id="clip0_6050_10608">
<rect width="89.2723" height="18.5674" fill="white"/>
</clipPath>
</defs>
</svg>
